<?xml version="1.0" encoding="UTF-8" standalone="no"?>
<!-- Created with Inkscape (http://www.inkscape.org/) -->

<svg
   width="144.73637mm"
   height="170.24634mm"
   viewBox="0 0 144.73637 170.24633"
   version="1.1"
   id="svg1"
   inkscape:version="1.3 (0e150ed6c4, 2023-07-21)"
   sodipodi:docname="Dak Violet Art LOGO Neon W.svg"
   xmlns:inkscape="http://www.inkscape.org/namespaces/inkscape"
   xmlns:sodipodi="http://sodipodi.sourceforge.net/DTD/sodipodi-0.dtd"
   xmlns="http://www.w3.org/2000/svg"
   xmlns:svg="http://www.w3.org/2000/svg">
  <sodipodi:namedview
     id="namedview1"
     pagecolor="#ffffff"
     bordercolor="#c7c0c0"
     borderopacity="1"
     inkscape:showpageshadow="0"
     inkscape:pageopacity="0"
     inkscape:pagecheckerboard="0"
     inkscape:deskcolor="#adadad"
     inkscape:document-units="mm"
     inkscape:zoom="0.5"
     inkscape:cx="1156"
     inkscape:cy="730"
     inkscape:window-width="1920"
     inkscape:window-height="991"
     inkscape:window-x="-9"
     inkscape:window-y="-9"
     inkscape:window-maximized="1"
     inkscape:current-layer="layer1"
     showgrid="false"
     showguides="true">
    <inkscape:grid
       id="grid573"
       units="px"
       originx="-1670.5471"
       originy="-2891.4321"
       spacingx="0.26458333"
       spacingy="0.26458334"
       empcolor="#0099e5"
       empopacity="0.30196078"
       color="#0099e5"
       opacity="0.14901961"
       empspacing="5"
       dotted="false"
       gridanglex="30"
       gridanglez="30"
       visible="false" />
  </sodipodi:namedview>
  <defs
     id="defs1">
    <linearGradient
       id="swatch9"
       inkscape:swatch="solid"
       gradientTransform="translate(274.0743,350.46774)">
      <stop
         style="stop-color:#ffffff;stop-opacity:1;"
         offset="0"
         id="stop9" />
    </linearGradient>
    <linearGradient
       id="swatch303"
       inkscape:swatch="solid">
      <stop
         style="stop-color:#550000;stop-opacity:1;"
         offset="0"
         id="stop303" />
    </linearGradient>
    <linearGradient
       id="swatch302"
       inkscape:swatch="solid">
      <stop
         style="stop-color:#800000;stop-opacity:1;"
         offset="0"
         id="stop302" />
    </linearGradient>
    <linearGradient
       id="swatch277"
       inkscape:swatch="solid">
      <stop
         style="stop-color:#3e0000;stop-opacity:1;"
         offset="0"
         id="stop277" />
    </linearGradient>
    <filter
       style="color-interpolation-filters:sRGB"
       inkscape:label="Blend"
       id="filter227-7-96-2-98"
       x="-0.082178389"
       y="-0.076148064"
       width="1.1643568"
       height="1.1522961">
      <feBlend
         in2="BackgroundImage"
         mode="multiply"
         result="fbSourceGraphic"
         id="feBlend227-2-36-2-4" />
      <feColorMatrix
         result="fbSourceGraphicAlpha"
         in="fbSourceGraphic"
         values="0 0 0 -1 0 0 0 0 -1 0 0 0 0 -1 0 0 0 0 1 0"
         id="feColorMatrix239-3-1-8-5" />
      <feBlend
         id="feBlend240-1-91-5-9"
         in2="fbSourceGraphic"
         mode="normal"
         result="fbSourceGraphic"
         in="fbSourceGraphic" />
      <feColorMatrix
         result="fbSourceGraphicAlpha"
         in="fbSourceGraphic"
         values="0 0 0 -1 0 0 0 0 -1 0 0 0 0 -1 0 0 0 0 1 0"
         id="feColorMatrix252-3-0-13-2" />
      <feBlend
         id="feBlend253-4-6-4-0"
         in2="fbSourceGraphic"
         mode="normal"
         result="blend"
         in="fbSourceGraphic" />
      <feGaussianBlur
         stdDeviation="0.59539405"
         id="feGaussianBlur9" />
    </filter>
    <filter
       style="color-interpolation-filters:sRGB"
       inkscape:label="Blend"
       id="filter226-4-52-3-4"
       x="-0.083718936"
       y="-0.079750712"
       width="1.1674379"
       height="1.1595014">
      <feBlend
         in2="BackgroundImage"
         mode="multiply"
         result="fbSourceGraphic"
         id="feBlend226-3-1-7-2" />
      <feColorMatrix
         result="fbSourceGraphicAlpha"
         in="fbSourceGraphic"
         values="0 0 0 -1 0 0 0 0 -1 0 0 0 0 -1 0 0 0 0 1 0"
         id="feColorMatrix238-0-5-3-02" />
      <feBlend
         id="feBlend239-7-5-9-4"
         in2="fbSourceGraphic"
         mode="normal"
         result="fbSourceGraphic"
         in="fbSourceGraphic" />
      <feColorMatrix
         result="fbSourceGraphicAlpha"
         in="fbSourceGraphic"
         values="0 0 0 -1 0 0 0 0 -1 0 0 0 0 -1 0 0 0 0 1 0"
         id="feColorMatrix251-0-98-8-5" />
      <feBlend
         id="feBlend252-7-1-7-9"
         in2="fbSourceGraphic"
         mode="normal"
         result="blend"
         in="fbSourceGraphic" />
      <feGaussianBlur
         stdDeviation="0.57555958"
         id="feGaussianBlur8" />
    </filter>
    <filter
       style="color-interpolation-filters:sRGB"
       inkscape:label="Blend"
       id="filter227-7-96-4-2"
       x="0"
       y="0"
       width="1"
       height="1">
      <feBlend
         in2="BackgroundImage"
         mode="multiply"
         result="fbSourceGraphic"
         id="feBlend227-2-36-3-7" />
      <feColorMatrix
         result="fbSourceGraphicAlpha"
         in="fbSourceGraphic"
         values="0 0 0 -1 0 0 0 0 -1 0 0 0 0 -1 0 0 0 0 1 0"
         id="feColorMatrix239-3-1-2-3" />
      <feBlend
         id="feBlend240-1-91-1-0"
         in2="fbSourceGraphic"
         mode="normal"
         result="fbSourceGraphic"
         in="fbSourceGraphic" />
      <feColorMatrix
         result="fbSourceGraphicAlpha"
         in="fbSourceGraphic"
         values="0 0 0 -1 0 0 0 0 -1 0 0 0 0 -1 0 0 0 0 1 0"
         id="feColorMatrix252-3-0-8-2" />
      <feBlend
         id="feBlend253-4-6-3-6"
         in2="fbSourceGraphic"
         mode="normal"
         result="blend"
         in="fbSourceGraphic" />
    </filter>
    <filter
       style="color-interpolation-filters:sRGB"
       inkscape:label="Blend"
       id="filter227-7-96-2-9-7"
       x="0"
       y="0"
       width="1"
       height="1">
      <feBlend
         in2="BackgroundImage"
         mode="multiply"
         result="fbSourceGraphic"
         id="feBlend227-2-36-2-5-5" />
      <feColorMatrix
         result="fbSourceGraphicAlpha"
         in="fbSourceGraphic"
         values="0 0 0 -1 0 0 0 0 -1 0 0 0 0 -1 0 0 0 0 1 0"
         id="feColorMatrix239-3-1-8-0-5" />
      <feBlend
         id="feBlend240-1-91-5-7-8"
         in2="fbSourceGraphic"
         mode="normal"
         result="fbSourceGraphic"
         in="fbSourceGraphic" />
      <feColorMatrix
         result="fbSourceGraphicAlpha"
         in="fbSourceGraphic"
         values="0 0 0 -1 0 0 0 0 -1 0 0 0 0 -1 0 0 0 0 1 0"
         id="feColorMatrix252-3-0-13-5-5" />
      <feBlend
         id="feBlend253-4-6-4-7-1"
         in2="fbSourceGraphic"
         mode="normal"
         result="blend"
         in="fbSourceGraphic" />
    </filter>
    <filter
       style="color-interpolation-filters:sRGB"
       inkscape:label="Blend"
       id="filter226-4-52-3-0-6"
       x="0"
       y="0"
       width="1"
       height="1">
      <feBlend
         in2="BackgroundImage"
         mode="multiply"
         result="fbSourceGraphic"
         id="feBlend226-3-1-7-6-3" />
      <feColorMatrix
         result="fbSourceGraphicAlpha"
         in="fbSourceGraphic"
         values="0 0 0 -1 0 0 0 0 -1 0 0 0 0 -1 0 0 0 0 1 0"
         id="feColorMatrix238-0-5-3-0-9" />
      <feBlend
         id="feBlend239-7-5-9-7-8"
         in2="fbSourceGraphic"
         mode="normal"
         result="fbSourceGraphic"
         in="fbSourceGraphic" />
      <feColorMatrix
         result="fbSourceGraphicAlpha"
         in="fbSourceGraphic"
         values="0 0 0 -1 0 0 0 0 -1 0 0 0 0 -1 0 0 0 0 1 0"
         id="feColorMatrix251-0-98-8-0-7" />
      <feBlend
         id="feBlend252-7-1-7-3-4"
         in2="fbSourceGraphic"
         mode="normal"
         result="blend"
         in="fbSourceGraphic" />
    </filter>
    <filter
       inkscape:collect="always"
       style="color-interpolation-filters:sRGB"
       id="filter15-5"
       x="-0.060383991"
       y="-0.63948976"
       width="1.120768"
       height="2.2789795">
      <feGaussianBlur
         inkscape:collect="always"
         stdDeviation="2.4404876"
         id="feGaussianBlur15-5" />
    </filter>
    <filter
       inkscape:collect="always"
       style="color-interpolation-filters:sRGB"
       id="filter1"
       x="-0.066980613"
       y="-0.34938361"
       width="1.1339612"
       height="1.6987672">
      <feGaussianBlur
         inkscape:collect="always"
         stdDeviation="1.8623628"
         id="feGaussianBlur1" />
    </filter>
    <filter
       inkscape:collect="always"
       style="color-interpolation-filters:sRGB"
       id="filter9"
       x="-0.15550327"
       y="-0.1242357"
       width="1.3110065"
       height="1.2484714">
      <feGaussianBlur
         inkscape:collect="always"
         stdDeviation="0.10654935"
         id="feGaussianBlur10" />
    </filter>
    <filter
       inkscape:collect="always"
       style="color-interpolation-filters:sRGB"
       id="filter11"
       x="-0.093567734"
       y="-0.15734696"
       width="1.2099063"
       height="1.3146363">
      <feGaussianBlur
         inkscape:collect="always"
         stdDeviation="0.15397042"
         id="feGaussianBlur11" />
    </filter>
  </defs>
  <g
     inkscape:label="Layer 1"
     inkscape:groupmode="layer"
     id="layer1"
     transform="translate(-441.9989,-765.02472)">
    <g
       id="g12"
       transform="translate(7.4083333)">
      <g
         id="g11"
         transform="translate(-70.34534,-5.2384827)">
        <path
           style="mix-blend-mode:normal;fill:#f0b9ff;fill-opacity:1;fill-rule:evenodd;stroke:#e69aff;stroke-width:0.120085;stroke-opacity:1;paint-order:stroke fill markers;filter:url(#filter11)"
           d="m 100.41126,109.84141 2.20298,0.002 0.47188,-0.4853 -2.50643,0.0216 -0.32076,-0.34242 -0.318811,0.002 0.321521,-0.002 0.3178,0.33951 2.50597,-0.0164 -0.94325,0.96402 -1.57466,7.6e-4 -0.31286,0.31978 -0.31537,-7.5e-4 0.31454,7.5e-4 0.31412,-0.31986 1.5743,-7.5e-4 2.9e-4,1e-4 -0.94654,0.96322 -0.31273,-7.6e-4 -0.47172,0.48141 -1.259034,-5e-5 -0.47473,-0.48598 0.474827,0.48583 1.258937,3e-4 0.47185,-0.48144 0.31488,0.002 0.47153,-0.48173 -0.94361,7.5e-4 -0.47232,0.48048 -0.785134,-3e-4 -0.31623,-0.32086 6.4e-5,-0.89894 -6.4e-5,0.89982 0.314997,0.31947 0.786307,7.6e-4 0.47223,-0.48059 0.9439,-7.5e-4 0.94457,-0.96262 z"
           id="path1-4-8"
           sodipodi:nodetypes="ccccccccccccccccccccccccccccccccccccccc"
           transform="matrix(6.7623036,0,0,6.6339638,-104.80122,121.2907)" />
        <path
           id="path2-7-7"
           style="mix-blend-mode:normal;fill:#efb7ff;fill-opacity:1;fill-rule:evenodd;stroke:#eebeff;stroke-width:0.106186;stroke-opacity:1;paint-order:stroke fill markers;filter:url(#filter9)"
           d="m 99.775945,108.86929 a 0.1644872,0.1691767 0 0 0 -0.164453,0.16919 0.1644872,0.1691767 0 0 0 0.164453,0.16919 0.1644872,0.1691767 0 0 0 0.164529,-0.16919 0.1644872,0.1691767 0 0 0 -0.164529,-0.16919 z m 0.470735,0.81238 a 0.1644872,0.1691767 0 0 0 -0.16445,0.16919 0.1644872,0.1691767 0 0 0 0.16445,0.1692 0.1644872,0.1691767 0 0 0 0.16453,-0.1692 0.1644872,0.1691767 0 0 0 -0.16453,-0.16919 z m -1.093545,0.0441 a 0.1644872,0.1691767 0 0 0 -0.164529,0.16919 0.1644872,0.1691767 0 0 0 0.164529,0.1692 0.1644872,0.1691767 0 0 0 0.164453,-0.1692 0.1644872,0.1691767 0 0 0 -0.164453,-0.16919 z m 0.652995,0.75389 a 0.1644872,0.1691767 0 0 0 -0.164453,0.16911 0.1644872,0.1691767 0 0 0 0.164453,0.16919 0.1644872,0.1691767 0 0 0 0.164453,-0.16919 0.1644872,0.1691767 0 0 0 -0.164453,-0.16911 z m -1.216275,0.53702 a 0.1644872,0.1691767 0 0 0 -0.164529,0.16911 0.1644872,0.1691767 0 0 0 0.164529,0.16919 0.1644872,0.1691767 0 0 0 0.164453,-0.16919 0.1644872,0.1691767 0 0 0 -0.164453,-0.16911 z"
           transform="matrix(6.7623036,0,0,6.6339638,-104.80122,121.2907)" />
        <path
           id="path12-8-6-3-7"
           style="display:inline;mix-blend-mode:normal;fill:#eeb2ff;fill-opacity:1;fill-rule:evenodd;stroke-width:0.264583;filter:url(#filter227-7-96-2-98)"
           d="m 108.98186,107.55067 c -0.0398,-0.0132 -0.55553,0.44235 -1.47536,1.25884 -1.96232,1.74183 -5.76568,5.12627 -8.268236,7.37526 -2.502552,2.24899 -3.70381,3.36223 -4.436939,4.04574 -0.733129,0.68352 -0.998041,0.93724 -1.168921,1.1467 -0.17088,0.20947 -0.248045,0.37465 -0.281119,0.54002 -0.03307,0.16537 -0.02187,0.33056 0.03876,0.49041 0.06063,0.15985 0.07041,0.17529 0.125535,0.25246 0.05512,0.0772 0.269875,0.24093 0.325002,0.25743 0.05513,0.0165 0.109856,0.0564 0.220103,0.0841 0.110246,0.0276 0.161703,0.0183 0.288474,0.0127 0.126772,-0.006 0.245882,-0.0706 0.339595,-0.12573 0.09371,-0.0551 0.162008,-0.10055 2.653504,-2.77947 2.491497,-2.67891 7.430342,-7.95949 9.839192,-10.55026 1.27971,-1.37634 1.84554,-1.99313 1.80041,-2.00814 z m -15.898259,15.11897 c -0.05387,5.7e-4 -0.154334,0.002 -0.216345,0.0138 -0.165365,0.0331 -0.144199,0.0186 -0.243419,0.0572 l -0.083,0.033 c -0.09922,0.0386 -0.227347,0.10235 -0.299006,0.17404 -0.07166,0.0717 -0.152551,0.13725 -0.279332,0.31364 -0.126781,0.17639 -0.264518,0.46357 -0.319638,0.66201 -0.05512,0.19844 -0.05512,0.38568 -0.03307,0.58963 0.02205,0.20395 0.05232,0.4419 0.118458,0.65687 0.06615,0.21498 0.167828,0.4068 0.333194,0.59422 0.165366,0.18741 0.408066,0.35311 0.617533,0.44131 0.209467,0.0883 0.385678,0.0984 0.705383,0.10439 0.319706,0.006 0.782722,0.006 0.909506,0.006 0.126783,0 -0.08251,1.5e-4 -0.225826,-0.0109 -0.143313,-0.011 -0.362109,-0.0264 -0.532981,-0.0705 -0.170873,-0.0441 -0.293673,-0.11714 -0.453522,-0.21634 -0.159849,-0.0992 -0.215145,-0.23133 -0.237195,-0.35811 -0.02205,-0.12679 -0.0112,-0.24804 0.02739,-0.3638 0.03859,-0.11576 0.10507,-0.22637 0.19327,-0.32557 0.0882,-0.0992 0.198261,-0.18708 0.308508,-0.28628 0.110247,-0.0992 0.220312,-0.20964 0.291972,-0.30334 0.07166,-0.0937 0.132559,-0.16734 0.182179,-0.27759 0.04961,-0.11026 0.08791,-0.25692 0.09894,-0.41126 0.01103,-0.15434 -0.03273,-0.31988 -0.08785,-0.45217 -0.05512,-0.1323 -0.121616,-0.23168 -0.209806,-0.31988 -0.08819,-0.0882 -0.198083,-0.16519 -0.319361,-0.20929 -0.0758,-0.0276 -0.156192,-0.0423 -0.245979,-0.0413 z"
           inkscape:label="path12"
           sodipodi:nodetypes="ccssssscsscsssccccccsssssscsscssssssscsssccc"
           transform="matrix(6.7623036,0,0,6.6339638,-104.80122,121.2907)" />
        <path
           id="text2-4-8-4-0"
           style="font-style:italic;font-variant:normal;font-weight:bold;font-stretch:normal;font-size:24.223px;font-family:Arial;-inkscape-font-specification:'Arial, Bold Italic';font-variant-ligatures:normal;font-variant-caps:normal;font-variant-numeric:normal;font-variant-east-asian:normal;display:inline;mix-blend-mode:normal;fill:#efb7ff;fill-opacity:1;fill-rule:evenodd;stroke-width:0.264583;filter:url(#filter226-4-52-3-4)"
           d="m 103.40593,108.99076 -1.19245,1.20111 -1.59895,1.63335 h 1.61334 v 0.009 h 0.11937 c 0.62946,0 1.12926,0.029 1.52859,0.0801 l 2.6665,-2.38435 c -0.0466,-0.0197 -0.0912,-0.0426 -0.13849,-0.061 -0.55984,-0.22078 -1.1981,-0.36673 -1.91564,-0.4377 -0.1602,-0.0174 -0.74587,-0.0235 -1.08918,-0.0333 z m 3.68469,0.80977 -2.23656,2.38745 c 0.44455,0.23027 0.8278,0.59521 1.14774,1.10071 0.40214,0.61504 0.60358,1.53772 0.60358,2.76779 0,1.44297 -0.24093,2.69704 -0.72192,3.76153 -0.48099,1.06449 -1.07228,1.91567 -1.77405,2.55437 -0.48889,0.44156 -1.02868,0.74546 -1.62006,0.91105 -0.19685,0.0532 -0.39892,0.094 -0.67832,0.12919 -0.0362,0.0219 -0.2559,0.0439 -0.29399,0.0636 -0.16093,0.0829 -0.20651,0.15025 -0.34544,0.2527 -0.0914,0.0674 -0.16554,0.14954 -0.27337,0.20206 -0.0776,0.0378 -0.16883,0.0582 -0.26096,0.0667 -0.0921,0.008 -0.18547,0.006 -0.27802,5.2e-4 -0.18509,-0.0107 -0.375276,-0.0307 -0.552939,0.009 -0.107588,0.0241 -0.204832,0.069 -0.290422,0.12299 -0.08559,0.054 -0.160496,0.11659 -0.233577,0.17983 -0.146162,0.12646 -0.29478,0.26102 -0.500228,0.32866 -0.148795,0.049 -0.317015,0.0586 -0.47904,0.0465 -0.162027,-0.0121 -0.319404,-0.0448 -0.47594,-0.078 -0.156538,-0.0332 -0.313712,-0.0675 -0.475423,-0.0817 -0.161713,-0.0142 -0.33007,-0.008 -0.481108,0.0372 -0.211271,0.063 -0.371941,0.19694 -0.484208,0.34365 -0.112269,0.14671 -0.182819,0.30832 -0.266651,0.46509 -0.07627,0.14263 -0.133007,0.23683 -0.248961,0.36396 -0.115954,0.12714 -0.2576,0.23448 -0.433208,0.31593 -0.203475,0.0944 -0.403549,0.17671 -0.642021,0.19751 -0.238467,0.0208 -0.499977,0.0381 -0.740086,0.0362 -0.102622,-8.3e-4 -0.25723,-0.003 -0.359865,-0.003 l -0.0062,0.0295 h 6.114872 c 1.537585,0 2.677195,-0.087 3.418395,-0.26045 1.30893,-0.3154 2.37704,-0.80424 3.20497,-1.46658 1.08026,-0.85159 1.97546,-1.99871 2.68511,-3.44165 0.71755,-1.45086 1.07642,-3.11083 1.07642,-4.97954 0,-0.86736 -0.091,-1.66357 -0.27233,-2.389 -0.18136,-0.73331 -0.44126,-1.38009 -0.78032,-1.93993 -0.33115,-0.55984 -0.72954,-1.03667 -1.19476,-1.43092 -0.26442,-0.23252 -0.54969,-0.43121 -0.85111,-0.60307 z"
           sodipodi:nodetypes="cccccscccccccccssccccsscccscsssscssscscccscccsccccc"
           transform="matrix(6.7623036,0,0,6.6339638,-104.80122,121.2907)" />
        <text
           xml:space="preserve"
           style="font-size:12.7px;line-height:0;font-family:'Bauhaus 93';-inkscape-font-specification:'Bauhaus 93, Normal';text-align:center;text-anchor:middle;display:inline;fill:#f0b4ff;fill-opacity:1;fill-rule:evenodd;stroke:none;stroke-width:6.69801;stroke-opacity:1;paint-order:stroke fill markers;filter:url(#filter15-5)"
           x="576.79974"
           y="973.60822"
           id="text1-0-2-2"><tspan
             sodipodi:role="line"
             style="fill:#f0b4ff;fill-opacity:1;stroke:none;stroke-width:6.698;stroke-opacity:1"
             x="576.79974"
             y="973.60822"
             id="tspan2-7-5-4">DARK VIOLET ART</tspan></text>
        <text
           xml:space="preserve"
           style="font-size:12.7px;line-height:0;font-family:'Bauhaus 93';-inkscape-font-specification:'Bauhaus 93, Normal';text-align:center;text-anchor:middle;display:inline;mix-blend-mode:normal;fill:#efb0ff;fill-opacity:1;fill-rule:evenodd;stroke:none;stroke-width:6.69801;stroke-opacity:1;paint-order:stroke fill markers;filter:url(#filter1)"
           x="576.79974"
           y="987.26569"
           id="text3-5-1-0"><tspan
             sodipodi:role="line"
             id="tspan3-2-4-5"
             style="font-style:normal;font-variant:normal;font-weight:normal;font-stretch:normal;font-size:12.7px;font-family:Mistral;-inkscape-font-specification:'Mistral, Normal';font-variant-ligatures:normal;font-variant-caps:normal;font-variant-numeric:normal;font-variant-east-asian:normal;fill:#efb0ff;fill-opacity:1;stroke:none;stroke-width:6.698;stroke-opacity:1"
             x="576.79974"
             y="987.26569">Online Shopping</tspan></text>
      </g>
      <g
         id="g4"
         transform="translate(90.16402,6.3688203)"
         style="display:inline">
        <text
           xml:space="preserve"
           style="font-size:12.7px;line-height:0;font-family:'Bauhaus 93';-inkscape-font-specification:'Bauhaus 93, Normal';text-align:center;text-anchor:middle;fill:url(#swatch9);fill-opacity:1;fill-rule:evenodd;stroke:none;stroke-width:6.69801;stroke-opacity:1;paint-order:stroke fill markers"
           x="416.29041"
           y="961.98486"
           id="text1-0-5"><tspan
             sodipodi:role="line"
             style="fill:url(#swatch9);fill-opacity:1;stroke:none;stroke-width:6.698;stroke-opacity:1"
             x="416.29041"
             y="961.98486"
             id="tspan2-7-0">DARK VIOLET ART</tspan></text>
        <text
           xml:space="preserve"
           style="font-size:12.7px;line-height:0;font-family:'Bauhaus 93';-inkscape-font-specification:'Bauhaus 93, Normal';text-align:center;text-anchor:middle;fill:url(#swatch9);fill-opacity:1;fill-rule:evenodd;stroke:none;stroke-width:6.69801;stroke-opacity:1;paint-order:stroke fill markers"
           x="416.29041"
           y="975.64233"
           id="text3-5-3"><tspan
             sodipodi:role="line"
             id="tspan3-2-8"
             style="font-style:normal;font-variant:normal;font-weight:normal;font-stretch:normal;font-size:12.7px;font-family:Mistral;-inkscape-font-specification:'Mistral, Normal';font-variant-ligatures:normal;font-variant-caps:normal;font-variant-numeric:normal;font-variant-east-asian:normal;fill:url(#swatch9);fill-opacity:1;stroke:none;stroke-width:6.698;stroke-opacity:1"
             x="416.29041"
             y="975.64233">Online Shopping</tspan></text>
      </g>
      <g
         id="g573-3-0-3-2-2"
         transform="matrix(6.7623036,0,0,6.6339638,-147.12264,119.2324)"
         style="display:inline;filter:url(#filter227-7-96-4-2)">
        <g
           id="g55-9-1-5"
           transform="translate(-4.0691262,-0.47859773)"
           style="fill:#ffffff;fill-opacity:1">
          <path
             style="fill:#000000;fill-opacity:0;fill-rule:evenodd;stroke:#ffffff;stroke-width:0.120085;stroke-opacity:1;paint-order:stroke fill markers"
             d="m 100.41126,109.84141 2.20298,0.002 0.47188,-0.4853 -2.50643,0.0216 -0.32076,-0.34242 -0.318811,0.002 0.321521,-0.002 0.3178,0.33951 2.50597,-0.0164 -0.94325,0.96402 -1.57466,7.6e-4 -0.31286,0.31978 -0.31537,-7.5e-4 0.31454,7.5e-4 0.31412,-0.31986 1.5743,-7.5e-4 2.9e-4,1e-4 -0.94654,0.96322 -0.31273,-7.6e-4 -0.47172,0.48141 -1.259034,-5e-5 -0.47473,-0.48598 0.474827,0.48583 1.258937,3e-4 0.47185,-0.48144 0.31488,0.002 0.47153,-0.48173 -0.94361,7.5e-4 -0.47232,0.48048 -0.785134,-3e-4 -0.31623,-0.32086 6.4e-5,-0.89894 -6.4e-5,0.89982 0.314997,0.31947 0.786307,7.6e-4 0.47223,-0.48059 0.9439,-7.5e-4 0.94457,-0.96262 z"
             id="path1-4-6-9"
             sodipodi:nodetypes="ccccccccccccccccccccccccccccccccccccccc" />
          <path
             id="path2-7-4-0"
             style="fill:none;fill-opacity:1;fill-rule:evenodd;stroke:#ffffff;stroke-width:0.106186;stroke-opacity:1;paint-order:stroke fill markers"
             d="m 99.775945,108.86929 a 0.1644872,0.1691767 0 0 0 -0.164453,0.16919 0.1644872,0.1691767 0 0 0 0.164453,0.16919 0.1644872,0.1691767 0 0 0 0.164529,-0.16919 0.1644872,0.1691767 0 0 0 -0.164529,-0.16919 z m 0.470735,0.81238 a 0.1644872,0.1691767 0 0 0 -0.16445,0.16919 0.1644872,0.1691767 0 0 0 0.16445,0.1692 0.1644872,0.1691767 0 0 0 0.16453,-0.1692 0.1644872,0.1691767 0 0 0 -0.16453,-0.16919 z m -1.093545,0.0441 a 0.1644872,0.1691767 0 0 0 -0.164529,0.16919 0.1644872,0.1691767 0 0 0 0.164529,0.1692 0.1644872,0.1691767 0 0 0 0.164453,-0.1692 0.1644872,0.1691767 0 0 0 -0.164453,-0.16919 z m 0.652995,0.75389 a 0.1644872,0.1691767 0 0 0 -0.164453,0.16911 0.1644872,0.1691767 0 0 0 0.164453,0.16919 0.1644872,0.1691767 0 0 0 0.164453,-0.16919 0.1644872,0.1691767 0 0 0 -0.164453,-0.16911 z m -1.216275,0.53702 a 0.1644872,0.1691767 0 0 0 -0.164529,0.16911 0.1644872,0.1691767 0 0 0 0.164529,0.16919 0.1644872,0.1691767 0 0 0 0.164453,-0.16919 0.1644872,0.1691767 0 0 0 -0.164453,-0.16911 z" />
          <path
             id="path12-8-6-3-3-6"
             style="display:inline;opacity:1;fill:#ffffff;fill-opacity:1;fill-rule:evenodd;stroke-width:0.264583;filter:url(#filter227-7-96-2-9-7)"
             d="m 108.98186,107.55067 c -0.0398,-0.0132 -0.55553,0.44235 -1.47536,1.25884 -1.96232,1.74183 -5.76568,5.12627 -8.268236,7.37526 -2.502552,2.24899 -3.70381,3.36223 -4.436939,4.04574 -0.733129,0.68352 -0.998041,0.93724 -1.168921,1.1467 -0.17088,0.20947 -0.248045,0.37465 -0.281119,0.54002 -0.03307,0.16537 -0.02187,0.33056 0.03876,0.49041 0.06063,0.15985 0.07041,0.17529 0.125535,0.25246 0.05512,0.0772 0.269875,0.24093 0.325002,0.25743 0.05513,0.0165 0.109856,0.0564 0.220103,0.0841 0.110246,0.0276 0.161703,0.0183 0.288474,0.0127 0.126772,-0.006 0.245882,-0.0706 0.339595,-0.12573 0.09371,-0.0551 0.162008,-0.10055 2.653504,-2.77947 2.491497,-2.67891 7.430342,-7.95949 9.839192,-10.55026 1.27971,-1.37634 1.84554,-1.99313 1.80041,-2.00814 z m -15.898259,15.11897 c -0.05387,5.7e-4 -0.154334,0.002 -0.216345,0.0138 -0.165365,0.0331 -0.144199,0.0186 -0.243419,0.0572 l -0.083,0.033 c -0.09922,0.0386 -0.227347,0.10235 -0.299006,0.17404 -0.07166,0.0717 -0.152551,0.13725 -0.279332,0.31364 -0.126781,0.17639 -0.264518,0.46357 -0.319638,0.66201 -0.05512,0.19844 -0.05512,0.38568 -0.03307,0.58963 0.02205,0.20395 0.05232,0.4419 0.118458,0.65687 0.06615,0.21498 0.167828,0.4068 0.333194,0.59422 0.165366,0.18741 0.408066,0.35311 0.617533,0.44131 0.209467,0.0883 0.385678,0.0984 0.705383,0.10439 0.319706,0.006 0.782722,0.006 0.909506,0.006 0.126783,0 -0.08251,1.5e-4 -0.225826,-0.0109 -0.143313,-0.011 -0.362109,-0.0264 -0.532981,-0.0705 -0.170873,-0.0441 -0.293673,-0.11714 -0.453522,-0.21634 -0.159849,-0.0992 -0.215145,-0.23133 -0.237195,-0.35811 -0.02205,-0.12679 -0.0112,-0.24804 0.02739,-0.3638 0.03859,-0.11576 0.10507,-0.22637 0.19327,-0.32557 0.0882,-0.0992 0.198261,-0.18708 0.308508,-0.28628 0.110247,-0.0992 0.220312,-0.20964 0.291972,-0.30334 0.07166,-0.0937 0.132559,-0.16734 0.182179,-0.27759 0.04961,-0.11026 0.08791,-0.25692 0.09894,-0.41126 0.01103,-0.15434 -0.03273,-0.31988 -0.08785,-0.45217 -0.05512,-0.1323 -0.121616,-0.23168 -0.209806,-0.31988 -0.08819,-0.0882 -0.198083,-0.16519 -0.319361,-0.20929 -0.0758,-0.0276 -0.156192,-0.0423 -0.245979,-0.0413 z"
             inkscape:label="path12"
             sodipodi:nodetypes="ccssssscsscsssccccccsssssscsscssssssscsssccc" />
          <path
             id="text2-4-8-4-2-6"
             style="font-style:italic;font-variant:normal;font-weight:bold;font-stretch:normal;font-size:24.223px;font-family:Arial;-inkscape-font-specification:'Arial, Bold Italic';font-variant-ligatures:normal;font-variant-caps:normal;font-variant-numeric:normal;font-variant-east-asian:normal;display:inline;opacity:1;fill:#ffffff;fill-opacity:1;fill-rule:evenodd;stroke-width:0.264583;filter:url(#filter226-4-52-3-0-6)"
             d="m 103.40593,108.99076 -1.19245,1.20111 -1.59895,1.63335 h 1.61334 v 0.009 h 0.11937 c 0.62946,0 1.12926,0.029 1.52859,0.0801 l 2.6665,-2.38435 c -0.0466,-0.0197 -0.0912,-0.0426 -0.13849,-0.061 -0.55984,-0.22078 -1.1981,-0.36673 -1.91564,-0.4377 -0.1602,-0.0174 -0.74587,-0.0235 -1.08918,-0.0333 z m 3.68469,0.80977 -2.23656,2.38745 c 0.44455,0.23027 0.8278,0.59521 1.14774,1.10071 0.40214,0.61504 0.60358,1.53772 0.60358,2.76779 0,1.44297 -0.24093,2.69704 -0.72192,3.76153 -0.48099,1.06449 -1.07228,1.91567 -1.77405,2.55437 -0.48889,0.44156 -1.02868,0.74546 -1.62006,0.91105 -0.19685,0.0532 -0.39892,0.094 -0.67832,0.12919 -0.0362,0.0219 -0.2559,0.0439 -0.29399,0.0636 -0.16093,0.0829 -0.20651,0.15025 -0.34544,0.2527 -0.0914,0.0674 -0.16554,0.14954 -0.27337,0.20206 -0.0776,0.0378 -0.16883,0.0582 -0.26096,0.0667 -0.0921,0.008 -0.18547,0.006 -0.27802,5.2e-4 -0.18509,-0.0107 -0.375276,-0.0307 -0.552939,0.009 -0.107588,0.0241 -0.204832,0.069 -0.290422,0.12299 -0.08559,0.054 -0.160496,0.11659 -0.233577,0.17983 -0.146162,0.12646 -0.29478,0.26102 -0.500228,0.32866 -0.148795,0.049 -0.317015,0.0586 -0.47904,0.0465 -0.162027,-0.0121 -0.319404,-0.0448 -0.47594,-0.078 -0.156538,-0.0332 -0.313712,-0.0675 -0.475423,-0.0817 -0.161713,-0.0142 -0.33007,-0.008 -0.481108,0.0372 -0.211271,0.063 -0.371941,0.19694 -0.484208,0.34365 -0.112269,0.14671 -0.182819,0.30832 -0.266651,0.46509 -0.07627,0.14263 -0.133007,0.23683 -0.248961,0.36396 -0.115954,0.12714 -0.2576,0.23448 -0.433208,0.31593 -0.203475,0.0944 -0.403549,0.17671 -0.642021,0.19751 -0.238467,0.0208 -0.499977,0.0381 -0.740086,0.0362 -0.102622,-8.3e-4 -0.25723,-0.003 -0.359865,-0.003 l -0.0062,0.0295 h 6.114872 c 1.537585,0 2.677195,-0.087 3.418395,-0.26045 1.30893,-0.3154 2.37704,-0.80424 3.20497,-1.46658 1.08026,-0.85159 1.97546,-1.99871 2.68511,-3.44165 0.71755,-1.45086 1.07642,-3.11083 1.07642,-4.97954 0,-0.86736 -0.091,-1.66357 -0.27233,-2.389 -0.18136,-0.73331 -0.44126,-1.38009 -0.78032,-1.93993 -0.33115,-0.55984 -0.72954,-1.03667 -1.19476,-1.43092 -0.26442,-0.23252 -0.54969,-0.43121 -0.85111,-0.60307 z"
             sodipodi:nodetypes="cccccscccccccccssccccsscccscsssscssscscccscccsccccc" />
        </g>
      </g>
    </g>
  </g>
</svg>
